# xmcd
#
# Track frame offsets:
#	150
#	15890
#	32930
#	49345
#	61584
#	81554
#	96006
#	110624
#	127460
#	138695
#	156047
#	181354
#
# Disc length: 2635 seconds
#
# Revision: 1
# Processed by: cddbd v1.5.2PL0 Copyright (c) Steve Scherf et al.
# Submitted via: audiograbber 1.83.01
#
DISCID=a60a490c
DTITLE=Scott Grower - When The Smoke Clears
DYEAR=2016
DGENRE=Folk
TTITLE0=GONE ASTRAY
TTITLE1=JUST NORTH OF BAD
TTITLE2=TEARS IN A BOTTLE
TTITLE3=NO ONE'S SONG
TTITLE4=STRONGER
TTITLE5=WHERE ARE YOU NOW
TTITLE6=HOUSE OF CARDS
TTITLE7=ONE LEGGED WILLY
TTITLE8=PARIAH
TTITLE9=CRUTCH
TTITLE10=WHEN THE SMOKE CLEARS
TTITLE11=(TBA)
EXTD=
EXTT0=
EXTT1=
EXTT2=
EXTT3=
EXTT4=
EXTT5=
EXTT6=
EXTT7=
EXTT8=
EXTT9=
EXTT10=
EXTT11=
PLAYORDER=
